<svg xmlns="http://www.w3.org/2000/svg" viewBox="0 0 149.37 44.92">
    <defs>
        <style>
            .prefix__cls-1{fill:#fc1114}.prefix__cls-2{fill:#fff}.prefix__cls-3{isolation:isolate}
        </style>
    </defs>
    <g id="prefix__Слой_2" data-name="Слой 2">
        <g id="prefix__Слой_1-2" data-name="Слой 1">
            <path id="prefix__Layer_19" d="M9.94 0.45L9.94 4.51 12.31 4.51 12.31 28.58 16.76 28.58 16.76 4.51 16.76 1.03 16.76 0.45 9.94 0.45z" class="prefix__cls-1" data-name="Layer 19"/>
            <path id="prefix__Layer_18" d="M0 0.45L0 4.51 2.37 4.51 2.37 28.58 6.82 28.58 6.82 4.51 6.82 1.03 6.82 0.45 0 0.45z" class="prefix__cls-1" data-name="Layer 18"/>
            <path id="prefix__Layer_16" d="M35.01 0.3L35.01 4.36 44.5 4.36 44.5 28.43 49.25 28.43 49.25 4.36 59.04 4.36 59.04 0.3 35.01 0.3z" class="prefix__cls-2" data-name="Layer 16"/>
            <path id="prefix__Layer_15" d="M114.22 0.3H118.67V28.43H114.22z" class="prefix__cls-2" data-name="Layer 15"/>
            <path d="M134.53.3a14.23 14.23 0 0 0-14.39 14.07 14.39 14.39 0 0 0 28.78 0A14.23 14.23 0 0 0 134.54.3zm0 24.65a10.71 10.71 0 0 1-10.83-10.58 10.83 10.83 0 0 1 21.66 0A10.71 10.71 0 0 1 134.53 25z" class="prefix__cls-2"/>
            <path id="prefix__Layer_13" d="M84.85 17.57V.3H81v15.08c0 8.41-3.41 9.57-8.9 9.57s-8.31-2.32-8.31-9.57V.3h-3.56v18.27c0 5.61 5.51 10.15 12.31 10.15s12.31-4.06 12.31-10.15" class="prefix__cls-2" data-name="Layer 13"/>
            <path id="prefix__Layer_12" d="M98.35.3H86.63v28.13h11.72a14.23 14.23 0 0 0 14.39-14.07A14.23 14.23 0 0 0 98.35.3zM97 24.78h-6.22V4.07H97c6.55 0 11.86 4.63 11.86 10.35S103.57 24.78 97 24.78z" class="prefix__cls-2" data-name="Layer 12"/>
            <path id="prefix__Layer_11" d="M33.67 2.19c-5.93-4.06-15.13-2-15.13 4.93 0 4.93 2.73 6.38 5.93 8.12 2.67 1.45 6.23 3.48 6.23 6.38 0 2.61-2.92 3.37-4.9 3.34C22 24.88 18.54 21 18.54 21v5a10.68 10.68 0 0 0 11.87 2 6.75 6.75 0 0 0 4.15-6.67c-.15-3.92-1.48-5.8-5.64-8.12-2-1.14-6.53-2.61-6.53-6.09 0-1.74 1.78-3.48 4.45-3.48 3.26 0 6.82 3.48 6.82 3.48z" class="prefix__cls-2" data-name="Layer 11"/>
            <g id="prefix__Layer_10" data-name="Layer 10">
                <path d="M34.44 35.68H35.33V38H34.44zM36.72 35.68H37.61V38H36.72zM41.29 35.68H42.18V39.74H41.29zM29.88 35.68H30.77V39.74H29.88zM27.6 35.68H28.490000000000002V38H27.6zM25.32 35.68H26.21V38H25.32zM23.04 35.68H23.93V38H23.04zM20.76 35.68H21.650000000000002V38H20.76zM18.48 35.68H19.37V39.74H18.48zM16.2 35.68H17.09V38H16.2zM13.92 35.68H14.81V38H13.92zM11.64 35.68H12.530000000000001V38H11.64zM9.36 35.68H10.25V38H9.36zM7.08 35.68H7.97V39.74H7.08zM4.79 35.68H5.68V38H4.79zM2.51 35.68H3.4V38H2.51zM32.16 35.68H33.05V38H32.16zM39.01 35.68H39.9V38H39.01zM43.57 35.68H44.46V38H43.57zM48.13 35.68H49.02V38H48.13zM96.02 35.68H96.91V38H96.02zM98.3 35.68H99.19V39.74H98.3zM102.87 35.68H103.76V38H102.87zM45.85 35.68H46.74V38H45.85zM91.46 35.68H92.35V38H91.46zM89.18 35.68H90.07000000000001V38H89.18zM86.9 35.68H87.79V39.74H86.9zM84.62 35.68H85.51V38H84.62zM82.34 35.68H83.23V38H82.34zM80.06 35.68H80.95V38H80.06zM77.78 35.68H78.67V38H77.78zM75.5 35.68H76.39V39.74H75.5zM73.22 35.68H74.11V38H73.22zM70.94 35.68H71.83V38H70.94zM68.66 35.68H69.55V38H68.66zM66.37 35.68H67.26V38H66.37zM64.09 35.68H64.98V39.74H64.09zM61.81 35.68H62.7V38H61.81zM59.53 35.68H60.42V38H59.53zM57.25 35.68H58.14V38H57.25zM54.97 35.68H55.86V38H54.97zM52.69 35.68H53.58V39.74H52.69zM50.41 35.68H51.3V38H50.41zM93.74 35.68H94.63V38H93.74zM100.58 35.68H101.47V38H100.58zM105.15 35.68H106.04V38H105.15zM109.71 35.68H110.6V39.74H109.71zM107.43 35.68H108.32000000000001V38H107.43zM148.48 35.68H149.36999999999998V38H148.48zM146.2 35.68H147.08999999999997V38H146.2zM143.92 35.68H144.80999999999997V39.74H143.92zM141.64 35.68H142.52999999999997V38H141.64zM139.36 35.68H140.25V38H139.36zM137.08 35.68H137.97V38H137.08zM134.8 35.68H135.69V38H134.8zM132.52 35.68H133.41V39.74H132.52zM130.23 35.68H131.11999999999998V38H130.23zM127.95 35.68H128.84V38H127.95zM125.67 35.68H126.56V38H125.67zM123.39 35.68H124.28V38H123.39zM121.11 35.68H122V39.74H121.11zM118.83 35.68H119.72V38H118.83zM116.55 35.68H117.44V38H116.55zM114.27 35.68H115.16V38H114.27zM111.99 35.68H112.88V38H111.99z" class="prefix__cls-2"/>
            </g>
            <g id="prefix__Layer_9" class="prefix__cls-3" data-name="Layer 9">
                <path d="M76.72 41.74a1.09 1.09 0 0 1-.21.73.81.81 0 0 1-1.18 0 1.08 1.08 0 0 1-.22-.73v-.59a1.09 1.09 0 0 1 .22-.73.81.81 0 0 1 1.18 0 1.09 1.09 0 0 1 .22.73zm-.34-.66a.81.81 0 0 0-.12-.48.45.45 0 0 0-.69 0 .82.82 0 0 0-.12.48v.72a.82.82 0 0 0 .12.48.4.4 0 0 0 .35.16.4.4 0 0 0 .34-.16.83.83 0 0 0 .12-.49z" class="prefix__cls-2"/>
            </g>
            <g id="prefix__Layer_8" class="prefix__cls-3" data-name="Layer 8">
                <path d="M98.91 42.69h-.34v-2.15H98v-.24l.86-.09z" class="prefix__cls-2"/>
            </g>
            <g id="prefix__Layer_7" class="prefix__cls-3" data-name="Layer 7">
                <path d="M122.47 42.69h-1.64v-.23l.83-.9a2.28 2.28 0 0 0 .3-.39.6.6 0 0 0 .08-.29.46.46 0 0 0-.11-.31.37.37 0 0 0-.29-.13.51.51 0 0 0-.39.13.52.52 0 0 0-.12.37h-.33a.69.69 0 0 1 .22-.54.86.86 0 0 1 .63-.22.75.75 0 0 1 .54.19.66.66 0 0 1 .2.5.78.78 0 0 1-.12.41 2.61 2.61 0 0 1-.34.44l-.67.71h1.22z" class="prefix__cls-2"/>
            </g>
            <g id="prefix__Layer_6" class="prefix__cls-3" data-name="Layer 6">
                <path d="M144 41.29h.3a.4.4 0 0 0 .32-.11.46.46 0 0 0 .09-.31.44.44 0 0 0-.11-.32.43.43 0 0 0-.32-.11.45.45 0 0 0-.32.11.4.4 0 0 0-.12.31h-.33a.59.59 0 0 1 .21-.48.81.81 0 0 1 .57-.2.82.82 0 0 1 .56.18.66.66 0 0 1 .21.52.57.57 0 0 1-.09.31.59.59 0 0 1-.28.23.56.56 0 0 1 .32.23.72.72 0 0 1-.13.88.86.86 0 0 1-.58.19.88.88 0 0 1-.57-.18.58.58 0 0 1-.22-.5h.33a.4.4 0 0 0 .12.31.47.47 0 0 0 .34.12.48.48 0 0 0 .34-.12.44.44 0 0 0 .12-.34.46.46 0 0 0-.11-.34.48.48 0 0 0-.35-.11h-.3z" class="prefix__cls-2"/>
            </g>
            <g id="prefix__Layer_5" class="prefix__cls-3" data-name="Layer 5">
                <path d="M51.61 41.77h-.85v-.26h.85zM52.86 42.69h-.34v-2.15H52v-.24l.86-.09z" class="prefix__cls-2"/>
            </g>
            <g id="prefix__Layer_4" class="prefix__cls-3" data-name="Layer 4">
                <path d="M28.71 41.77h-.85v-.26h.85zM30.62 42.69H29v-.23l.83-.9a2.28 2.28 0 00.3-.39.6.6 0 00.08-.29.46.46 0 00-.11-.31.37.37 0 00-.29-.13.51.51 0 00-.39.13.52.52 0 00-.12.37h-.33a.69.69 0 01.22-.54.86.86 0 01.63-.22.75.75 0 01.54.19.66.66 0 01.2.5.78.78 0 01-.12.41 2.61 2.61 0 01-.34.44l-.67.71h1.22z" class="prefix__cls-2"/>
            </g>
            <g id="prefix__Layer_3" class="prefix__cls-3" data-name="Layer 3">
                <path d="M5.77 41.77h-.85v-.26h.85zM6.51 41.29h.3a.4.4 0 00.32-.11.46.46 0 00.09-.31.44.44 0 00-.11-.32.43.43 0 00-.32-.11.45.45 0 00-.32.11.4.4 0 00-.12.31H6a.59.59 0 01.21-.48.81.81 0 01.57-.2.82.82 0 01.56.18.66.66 0 01.21.52.57.57 0 01-.09.31.59.59 0 01-.28.23.56.56 0 01.32.23.72.72 0 01-.13.88.86.86 0 01-.58.19.88.88 0 01-.57-.18A.58.58 0 016 42h.33a.4.4 0 00.12.31.47.47 0 00.34.12.48.48 0 00.34-.12.44.44 0 00.14-.31.46.46 0 00-.11-.34.48.48 0 00-.35-.11h-.3z" class="prefix__cls-2"/>
            </g>
            <path id="prefix__Layer_2" d="M75.94 43.1L74.86 44.92 77.01 44.92 75.94 43.1z" class="prefix__cls-2" data-name="Layer 2"/>
            <g id="prefix__Слой_2-2" data-name="Слой 2">
                <g id="prefix__Layer_14" class="prefix__blinker" data-name="Layer 14">
                    <path d="M143.77 14.34a9.26 9.26 0 0 1-18.51 0 9.26 9.26 0 0 1 18.51 0z" class="prefix__cls-1"/>
                </g>
            </g>
        </g>
    </g>
</svg>
