<?xml version="1.0" encoding="utf-8"?><svg viewBox="0 0 100 100" xmlns="http://www.w3.org/2000/svg" xmlns:xlink="http://www.w3.org/1999/xlink"><style>:root>svg{display:none}:root>svg:target{display:block}</style><svg viewBox="0 0 128 128" id="calendar" xmlns="http://www.w3.org/2000/svg"><path d="M121.693 14.088H99.264V6.307a1.75 1.75 0 00-1.75-1.75h-7.462a1.749 1.749 0 00-1.75 1.75v7.781H69.481V6.307a1.749 1.749 0 00-1.75-1.75h-7.462a1.749 1.749 0 00-1.75 1.75v7.781H39.7V6.307a1.749 1.749 0 00-1.75-1.75h-7.464a1.75 1.75 0 00-1.75 1.75v7.781H6.307a1.749 1.749 0 00-1.75 1.75v105.855a1.749 1.749 0 001.75 1.75h115.386a1.749 1.749 0 001.75-1.75V15.838a1.749 1.749 0 00-1.75-1.75zM91.8 8.057h3.962v15.562H91.8zm-29.783 0h3.962v15.562h-3.96zm-29.783 0H36.2v15.562h-3.964zM8.057 17.588h20.679v7.781a1.75 1.75 0 001.75 1.75h7.462a1.749 1.749 0 001.75-1.75v-7.781h18.821v7.781a1.749 1.749 0 001.75 1.75h7.462a1.749 1.749 0 001.75-1.75v-7.781H88.3v7.781a1.749 1.749 0 001.75 1.75h7.462a1.75 1.75 0 001.75-1.75v-7.781h20.679v20.025H8.057zm0 102.355v-78.83h111.886v78.83z"/><path d="M27.66 49.015a8.033 8.033 0 108.033 8.033 8.041 8.041 0 00-8.033-8.033zm0 12.566a4.533 4.533 0 114.533-4.533 4.537 4.537 0 01-4.533 4.533zM51.887 49.015a8.033 8.033 0 108.033 8.033 8.042 8.042 0 00-8.033-8.033zm0 12.566a4.533 4.533 0 114.533-4.533 4.538 4.538 0 01-4.533 4.533zM76.113 49.015a8.033 8.033 0 108.033 8.033 8.042 8.042 0 00-8.033-8.033zm0 12.566a4.533 4.533 0 114.533-4.533 4.537 4.537 0 01-4.533 4.533zM100.34 49.015a8.033 8.033 0 108.032 8.033 8.041 8.041 0 00-8.032-8.033zm0 12.566a4.533 4.533 0 114.532-4.533 4.537 4.537 0 01-4.532 4.533zM27.66 72.5a8.034 8.034 0 108.033 8.033A8.042 8.042 0 0027.66 72.5zm0 12.567a4.534 4.534 0 114.533-4.534 4.538 4.538 0 01-4.533 4.529zM51.887 72.5a8.034 8.034 0 108.033 8.033 8.043 8.043 0 00-8.033-8.033zm0 12.567a4.534 4.534 0 114.533-4.534 4.539 4.539 0 01-4.533 4.529zM76.113 72.5a8.034 8.034 0 108.033 8.033 8.043 8.043 0 00-8.033-8.033zm0 12.567a4.534 4.534 0 114.533-4.534 4.538 4.538 0 01-4.533 4.529zM100.34 72.5a8.034 8.034 0 108.032 8.033 8.042 8.042 0 00-8.032-8.033zm0 12.567a4.534 4.534 0 114.532-4.534 4.538 4.538 0 01-4.532 4.529zM27.66 95.976a8.033 8.033 0 108.033 8.033 8.041 8.041 0 00-8.033-8.033zm0 12.566a4.533 4.533 0 114.533-4.533 4.537 4.537 0 01-4.533 4.533zM51.887 95.976a8.033 8.033 0 108.033 8.033 8.042 8.042 0 00-8.033-8.033zm0 12.566a4.533 4.533 0 114.533-4.533 4.538 4.538 0 01-4.533 4.533zM76.113 95.976a8.033 8.033 0 108.033 8.033 8.042 8.042 0 00-8.033-8.033zm0 12.566a4.533 4.533 0 114.533-4.533 4.537 4.537 0 01-4.533 4.533zM100.34 95.976a8.033 8.033 0 108.032 8.033 8.041 8.041 0 00-8.032-8.033zm0 12.566a4.533 4.533 0 114.532-4.533 4.537 4.537 0 01-4.532 4.533z"/></svg><svg viewBox="0 0 479.058 479.058" id="email" xmlns="http://www.w3.org/2000/svg"><path class="bst1" fill="#fff" d="M434.146 59.882H44.912C20.146 59.882 0 80.028 0 104.794v269.47c0 24.766 20.146 44.912 44.912 44.912h389.234c24.766 0 44.912-20.146 44.912-44.912v-269.47c0-24.766-20.146-44.912-44.912-44.912zm0 29.941c2.034 0 3.969.422 5.738 1.159L239.529 264.631 39.173 90.982a14.902 14.902 0 015.738-1.159zm0 299.411H44.912c-8.26 0-14.971-6.71-14.971-14.971V122.615l199.778 173.141c2.822 2.441 6.316 3.655 9.81 3.655s6.988-1.213 9.81-3.655l199.778-173.141v251.649c-.001 8.26-6.711 14.97-14.971 14.97z"/></svg><svg viewBox="0 0 479.058 479.058" id="email_hover" xmlns="http://www.w3.org/2000/svg"><path fill="#fc1114" d="M434.146 59.882H44.912C20.146 59.882 0 80.028 0 104.794v269.47c0 24.766 20.146 44.912 44.912 44.912h389.234c24.766 0 44.912-20.146 44.912-44.912v-269.47c0-24.766-20.146-44.912-44.912-44.912zm0 29.941c2.034 0 3.969.422 5.738 1.159L239.529 264.631 39.173 90.982a14.902 14.902 0 015.738-1.159zm0 299.411H44.912c-8.26 0-14.971-6.71-14.971-14.971V122.615l199.778 173.141c2.822 2.441 6.316 3.655 9.81 3.655s6.988-1.213 9.81-3.655l199.778-173.141v251.649c-.001 8.26-6.711 14.97-14.971 14.97z"/></svg><svg viewBox="0 0 24 24" id="facebook" xmlns="http://www.w3.org/2000/svg"><path class="dst1" fill="#fff" d="M15.997 3.985h2.191V.169C17.81.117 16.51 0 14.996 0c-3.159 0-5.323 1.987-5.323 5.639V9H6.187v4.266h3.486V24h4.274V13.267h3.345l.531-4.266h-3.877V6.062c.001-1.233.333-2.077 2.051-2.077z"/></svg><svg viewBox="0 0 24 24" id="facebook_hover" xmlns="http://www.w3.org/2000/svg"><path fill="#fc1114" d="M15.997 3.985h2.191V.169C17.81.117 16.51 0 14.996 0c-3.159 0-5.323 1.987-5.323 5.639V9H6.187v4.266h3.486V24h4.274V13.267h3.345l.531-4.266h-3.877V6.062c.001-1.233.333-2.077 2.051-2.077z"/></svg><svg viewBox="0 0 512.001 512.001" id="instagram" xmlns="http://www.w3.org/2000/svg"><path class="fst1" fill="#fff" d="M373.406 0H138.594C62.172 0 0 62.172 0 138.594V373.41C0 449.828 62.172 512 138.594 512H373.41C449.828 512 512 449.828 512 373.41V138.594C512 62.172 449.828 0 373.406 0zm108.578 373.41c0 59.867-48.707 108.574-108.578 108.574H138.594c-59.871 0-108.578-48.707-108.578-108.574V138.594c0-59.871 48.707-108.578 108.578-108.578H373.41c59.867 0 108.574 48.707 108.574 108.578zm0 0"/><path class="fst1" fill="#fff" d="M256 116.004c-77.195 0-139.996 62.8-139.996 139.996S178.804 395.996 256 395.996 395.996 333.196 395.996 256 333.196 116.004 256 116.004zm0 249.976c-60.64 0-109.98-49.335-109.98-109.98 0-60.64 49.34-109.98 109.98-109.98 60.645 0 109.98 49.34 109.98 109.98 0 60.645-49.335 109.98-109.98 109.98zM399.344 66.285c-22.813 0-41.367 18.559-41.367 41.367 0 22.813 18.554 41.371 41.367 41.371s41.37-18.558 41.37-41.37-18.558-41.368-41.37-41.368zm0 52.719c-6.258 0-11.352-5.094-11.352-11.352 0-6.261 5.094-11.351 11.352-11.351 6.261 0 11.355 5.09 11.355 11.351 0 6.258-5.094 11.352-11.355 11.352zm0 0"/></svg><svg viewBox="0 0 512.001 512.001" id="instagram_hover" xmlns="http://www.w3.org/2000/svg"><path fill="#fc1114" d="M373.406 0H138.594C62.172 0 0 62.172 0 138.594V373.41C0 449.828 62.172 512 138.594 512H373.41C449.828 512 512 449.828 512 373.41V138.594C512 62.172 449.828 0 373.406 0zm108.578 373.41c0 59.867-48.707 108.574-108.578 108.574H138.594c-59.871 0-108.578-48.707-108.578-108.574V138.594c0-59.871 48.707-108.578 108.578-108.578H373.41c59.867 0 108.574 48.707 108.574 108.578zm0 0"/><path fill="#fc1114" d="M256 116.004c-77.195 0-139.996 62.8-139.996 139.996S178.804 395.996 256 395.996 395.996 333.196 395.996 256 333.196 116.004 256 116.004zm0 249.976c-60.64 0-109.98-49.335-109.98-109.98 0-60.64 49.34-109.98 109.98-109.98 60.645 0 109.98 49.34 109.98 109.98 0 60.645-49.335 109.98-109.98 109.98zM399.344 66.285c-22.813 0-41.367 18.559-41.367 41.367 0 22.813 18.554 41.371 41.367 41.371s41.37-18.558 41.37-41.37-18.558-41.368-41.37-41.368zm0 52.719c-6.258 0-11.352-5.094-11.352-11.352 0-6.261 5.094-11.351 11.352-11.351 6.261 0 11.355 5.09 11.355 11.351 0 6.258-5.094 11.352-11.355 11.352zm0 0"/></svg><svg viewBox="-45 0 327 327" id="pause" xmlns="http://www.w3.org/2000/svg"><path class="hst1" fill="#fff" d="M158 0h71a8 8 0 018 8v311a8 8 0 01-8 8h-71a8 8 0 01-8-8V8a8 8 0 018-8zM8 0h71a8 8 0 018 8v311a8 8 0 01-8 8H8a8 8 0 01-8-8V8a8 8 0 018-8zm0 0"/></svg><svg viewBox="0 0 494.148 494.148" id="play" xmlns="http://www.w3.org/2000/svg"><path d="M405.284 201.188L130.804 13.28C118.128 4.596 105.356 0 94.74 0 74.216 0 61.52 16.472 61.52 44.044v406.124c0 27.54 12.68 43.98 33.156 43.98 10.632 0 23.2-4.6 35.904-13.308l274.608-187.904c17.66-12.104 27.44-28.392 27.44-45.884.004-17.48-9.664-33.764-27.344-45.864z" data-original="#000000" class="iactive-path" data-old_color="#000000" fill="#FFF"/></svg><svg viewBox="0 0 511.999 511.999" id="search" xmlns="http://www.w3.org/2000/svg"><path class="jst1" fill="#fff" d="M508.874 478.708L360.142 329.976c28.21-34.827 45.191-79.103 45.191-127.309C405.333 90.917 314.416 0 202.666 0S0 90.917 0 202.667s90.917 202.667 202.667 202.667c48.206 0 92.482-16.982 127.309-45.191l148.732 148.732c4.167 4.165 10.919 4.165 15.086 0l15.081-15.082c4.165-4.166 4.165-10.92-.001-15.085zM202.667 362.667c-88.229 0-160-71.771-160-160s71.771-160 160-160 160 71.771 160 160-71.771 160-160 160z"/></svg><svg viewBox="0 0 511.999 511.999" id="search_hover" xmlns="http://www.w3.org/2000/svg"><path fill="#fc1114" d="M508.874 478.708L360.142 329.976c28.21-34.827 45.191-79.103 45.191-127.309C405.333 90.917 314.416 0 202.666 0S0 90.917 0 202.667s90.917 202.667 202.667 202.667c48.206 0 92.482-16.982 127.309-45.191l148.732 148.732c4.167 4.165 10.919 4.165 15.086 0l15.081-15.082c4.165-4.166 4.165-10.92-.001-15.085zM202.667 362.667c-88.229 0-160-71.771-160-160s71.771-160 160-160 160 71.771 160 160-71.771 160-160 160z"/></svg><svg viewBox="0 0 24 24" id="vk" xmlns="http://www.w3.org/2000/svg"><path class="lst1" fill="#fff" d="M19.915 13.028c-.388-.49-.277-.708 0-1.146.005-.005 3.208-4.431 3.538-5.932l.002-.001c.164-.547 0-.949-.793-.949h-2.624c-.668 0-.976.345-1.141.731 0 0-1.336 3.198-3.226 5.271-.61.599-.892.791-1.225.791-.164 0-.419-.192-.419-.739V5.949c0-.656-.187-.949-.74-.949H9.161c-.419 0-.668.306-.668.591 0 .622.945.765 1.043 2.515v3.797c0 .832-.151.985-.486.985-.892 0-3.057-3.211-4.34-6.886-.259-.713-.512-1.001-1.185-1.001H.9c-.749 0-.9.345-.9.731 0 .682.892 4.073 4.148 8.553C6.318 17.343 9.374 19 12.154 19c1.671 0 1.875-.368 1.875-1.001 0-2.922-.151-3.198.686-3.198.388 0 1.056.192 2.616 1.667C19.114 18.217 19.407 19 20.405 19h2.624c.748 0 1.127-.368.909-1.094-.499-1.527-3.871-4.668-4.023-4.878z"/></svg><svg viewBox="0 0 24 24" id="vk_hover" xmlns="http://www.w3.org/2000/svg"><path fill="#fc1114" d="M19.915 13.028c-.388-.49-.277-.708 0-1.146.005-.005 3.208-4.431 3.538-5.932l.002-.001c.164-.547 0-.949-.793-.949h-2.624c-.668 0-.976.345-1.141.731 0 0-1.336 3.198-3.226 5.271-.61.599-.892.791-1.225.791-.164 0-.419-.192-.419-.739V5.949c0-.656-.187-.949-.74-.949H9.161c-.419 0-.668.306-.668.591 0 .622.945.765 1.043 2.515v3.797c0 .832-.151.985-.486.985-.892 0-3.057-3.211-4.34-6.886-.259-.713-.512-1.001-1.185-1.001H.9c-.749 0-.9.345-.9.731 0 .682.892 4.073 4.148 8.553C6.318 17.343 9.374 19 12.154 19c1.671 0 1.875-.368 1.875-1.001 0-2.922-.151-3.198.686-3.198.388 0 1.056.192 2.616 1.667C19.114 18.217 19.407 19 20.405 19h2.624c.748 0 1.127-.368.909-1.094-.499-1.527-3.871-4.668-4.023-4.878z"/></svg><svg viewBox="0 0 512 512" id="youtube" xmlns="http://www.w3.org/2000/svg"><path fill="#fff" d="M490.24 113.92c-13.888-24.704-28.96-29.248-59.648-30.976C399.936 80.864 322.848 80 256.064 80c-66.912 0-144.032.864-174.656 2.912-30.624 1.76-45.728 6.272-59.744 31.008C7.36 138.592 0 181.088 0 255.904v.256c0 74.496 7.36 117.312 21.664 141.728 14.016 24.704 29.088 29.184 59.712 31.264C112.032 430.944 189.152 432 256.064 432c66.784 0 143.872-1.056 174.56-2.816 30.688-2.08 45.76-6.56 59.648-31.264C504.704 373.504 512 330.688 512 256.192v-.256c0-74.848-7.296-117.344-21.76-142.016zM192 352V160l160 96-160 96z"/></svg><svg viewBox="0 0 512 512" id="youtube_hover" xmlns="http://www.w3.org/2000/svg"><path fill="#fc1114" d="M490.24 113.92c-13.888-24.704-28.96-29.248-59.648-30.976C399.936 80.864 322.848 80 256.064 80c-66.912 0-144.032.864-174.656 2.912-30.624 1.76-45.728 6.272-59.744 31.008C7.36 138.592 0 181.088 0 255.904v.256c0 74.496 7.36 117.312 21.664 141.728 14.016 24.704 29.088 29.184 59.712 31.264C112.032 430.944 189.152 432 256.064 432c66.784 0 143.872-1.056 174.56-2.816 30.688-2.08 45.76-6.56 59.648-31.264C504.704 373.504 512 330.688 512 256.192v-.256c0-74.848-7.296-117.344-21.76-142.016zM192 352V160l160 96-160 96z"/></svg></svg>